<?xml version="1.0" encoding="utf-8"?>
<!-- Generator: Adobe Illustrator 24.3.0, SVG Export Plug-In . SVG Version: 6.00 Build 0)  -->
<svg version="1.1"
	 id="svg9" inkscape:version="1.0 (4035a4fb49, 2020-05-01)" sodipodi:docname="Menu@3x.svg" xmlns:cc="http://creativecommons.org/ns#" xmlns:dc="http://purl.org/dc/elements/1.1/" xmlns:inkscape="http://www.inkscape.org/namespaces/inkscape" xmlns:rdf="http://www.w3.org/1999/02/22-rdf-syntax-ns#" xmlns:sodipodi="http://sodipodi.sourceforge.net/DTD/sodipodi-0.dtd" xmlns:svg="http://www.w3.org/2000/svg"
	 xmlns="http://www.w3.org/2000/svg" xmlns:xlink="http://www.w3.org/1999/xlink" x="0px" y="0px" viewBox="0 0 50 50"
	 style="enable-background:new 0 0 50 50;" xml:space="preserve">
<style type="text/css">
	.st0{fill:#FFFFFF;}
</style>
<sodipodi:namedview  bordercolor="#666666" borderopacity="1" gridtolerance="10" guidetolerance="10" id="namedview11" inkscape:current-layer="svg9" inkscape:cx="29.898579" inkscape:cy="26.447018" inkscape:pageopacity="0" inkscape:pageshadow="2" inkscape:window-height="1057" inkscape:window-maximized="1" inkscape:window-width="1920" inkscape:window-x="-8" inkscape:window-y="-8" inkscape:zoom="14.833333" objecttolerance="10" pagecolor="#ffffff" showgrid="false">
	</sodipodi:namedview>
<g id="g841" transform="matrix(0.51123595,0,0,0.51123595,-1.8913859,-2.1470029)">
	<path id="Rounded_Rectangle_21" class="st0" d="M15.1,9.6h75c5.8,0,10.5,4.7,10.5,10.5l0,0c0,5.8-4.7,10.5-10.5,10.5h-75
		c-5.8,0-10.5-4.7-10.5-10.5l0,0C4.6,14.3,9.3,9.6,15.1,9.6z"/>
	<path id="Rounded_Rectangle_21_copy" class="st0" d="M15.1,42.6h58c5.8,0,10.5,4.7,10.5,10.5l0,0c0,5.8-4.7,10.5-10.5,10.5h-58
		c-5.8,0-10.5-4.7-10.5-10.5l0,0C4.6,47.3,9.3,42.6,15.1,42.6z"/>
	<path id="Rounded_Rectangle_21_copy_2" class="st0" d="M15.1,75.6h31c5.8,0,10.5,4.7,10.5,10.5l0,0c0,5.8-4.7,10.5-10.5,10.5h-31
		c-5.8,0-10.5-4.7-10.5-10.5l0,0C4.6,80.3,9.3,75.6,15.1,75.6z"/>
</g>
</svg>
